<?xml version="1.0" encoding="UTF-8" standalone="no"?>
<svg
   xmlns:osb="http://www.openswatchbook.org/uri/2009/osb"
   xmlns:dc="http://purl.org/dc/elements/1.1/"
   xmlns:cc="http://creativecommons.org/ns#"
   xmlns:rdf="http://www.w3.org/1999/02/22-rdf-syntax-ns#"
   xmlns:svg="http://www.w3.org/2000/svg"
   xmlns="http://www.w3.org/2000/svg"
   xmlns:sodipodi="http://sodipodi.sourceforge.net/DTD/sodipodi-0.dtd"
   xmlns:inkscape="http://www.inkscape.org/namespaces/inkscape"
   height="213.60023"
   width="191.95561"
   viewBox="0 0 191.95561 213.60023"
   version="1.1"
   id="svg86"
   sodipodi:docname="Logo 1.svg"
   inkscape:version="1.0 (4035a4fb49, 2020-05-01)">
  <metadata
     id="metadata90">
    <rdf:RDF>
      <cc:Work
         rdf:about="">
        <dc:format>image/svg+xml</dc:format>
        <dc:type
           rdf:resource="http://purl.org/dc/dcmitype/StillImage" />
        <dc:title>Ресурс 2</dc:title>
      </cc:Work>
    </rdf:RDF>
  </metadata>
  <sodipodi:namedview
     fit-margin-bottom="0"
     fit-margin-right="0"
     fit-margin-left="0"
     fit-margin-top="0"
     inkscape:snap-grids="false"
     inkscape:snap-midpoints="true"
     inkscape:document-rotation="0"
     pagecolor="#ffffff"
     bordercolor="#666666"
     borderopacity="1"
     objecttolerance="10"
     gridtolerance="10"
     guidetolerance="10"
     inkscape:pageopacity="0"
     inkscape:pageshadow="2"
     inkscape:window-width="1920"
     inkscape:window-height="986"
     id="namedview88"
     showgrid="false"
     showguides="true"
     inkscape:guide-bbox="true"
     inkscape:zoom="1.535506"
     inkscape:cx="107.82939"
     inkscape:cy="154.5561"
     inkscape:window-x="-11"
     inkscape:window-y="-11"
     inkscape:window-maximized="1"
     inkscape:current-layer="svg86">
    <sodipodi:guide
       position="-132.3325,-5.0532788"
       orientation="0,-1"
       id="guide152" />
  </sodipodi:namedview>
  <defs
     id="defs4">
    <linearGradient
       osb:paint="solid"
       id="linearGradient1444">
      <stop
         id="stop1442"
         offset="0"
         style="stop-color:#000000;stop-opacity:1;" />
    </linearGradient>
    <linearGradient
       osb:paint="gradient"
       id="linearGradient1420"
       inkscape:collect="always">
      <stop
         id="stop1416"
         offset="0"
         style="stop-color:#1a1a1a;stop-opacity:1;" />
      <stop
         id="stop1418"
         offset="1"
         style="stop-color:#1a1a1a;stop-opacity:0;" />
    </linearGradient>
    <style
       id="style2">.cls-1{fill:#1a1a1a;}</style>
  </defs>
  <title
     id="title6">Ресурс 2</title>
  <g
     transform="translate(-132.5969,6.1282605)"
     id="Слой_2"
     data-name="Слой 2">
    <g
       id="g42">
      <path
         style="fill:#000000;stroke-width:1.07331"
         sodipodi:nodetypes="ccccccccccccccccccccccccccccccccccccscccccccccccccccscscccccccscccccccccccccsscccccccccccccccccccccccscccccccccccccssccsscccc"
         class="cls-1"
         d="m 246.65334,79.811969 c 0.31812,-2.654091 -0.11694,-5.335435 -1.26719,-7.81 -1.57822,-3.24 -3.66331,-7.09 -5.18393,-9.81 3.14492,-3.16 6.1516,-7.95 5.62169,-13.57 -0.3805,-4.062334 -1.80552,-7.998905 -4.17019,-11.52 3.45596,-5.72 9.21588,-18.19 0.99071,-29.7799995 -6.75063,-9.54 -17.78664,-12.29 -23.75392,-13.07 -8.21365,-1.08 -15.85131,0.18 -19.92934,3.28 -2.46025,1.86160207 -4.5571,4.0566622 -6.2092,6.5 -6.76215,-1.16 -16.0241,-0.42 -22.45218,7.2599995 -3.88571,4.647607 -5.53805,10.424412 -4.60794,16.11 -10.49951,3.669176 -17.63161,12.2535 -18.32807,22.06 -0.57662,4.314617 0.0115,8.686522 1.71645,12.77 -8.67444,6.44 -18.71975,19.640003 -14.16941,38.640001 0.90817,4.33851 2.24558,8.60096 3.99739,12.74 -2.91452,4.26 -7.45334,12.36001 -6.04792,20.78001 1.15198,6.71 5.63321,12 8.61685,14.9 -1.15199,5.81 -2.40765,18.51 7.11926,27.49 7.85654,7.37 18.69671,8.61 25.93118,8.46 2.92604,7 10.64433,20 28.2697,21.85 2.31699,0.23993 4.64766,0.3668 6.98103,0.38 19.4455,0 31.62198,-9.2 36.36815,-17.82 6.09694,-20.60496 2.52561,-3.11413 4.53882,-16.52751 -0.1152,-0.69 -0.17279,-12.21249 -0.31103,-12.86249 -1.75102,-9.6 -4.44666,-15.09 -7.30359,-18.1 4.5429,-7.83362 6.63677,-14.69594 3.37532,-22.29001 v -0.09 c -1.08898,-6.55441 -5.65073,-12.87743 -9.38915,-18.65 1.63672,-2.838663 4.61529,-5.956492 4.70057,-9.129998 4.89594,-12.190003 -1.63084,4.662875 4.89594,-12.190003 z m -87.43564,-29.47 c 0.80639,-8.19 6.64695,-11.76 10.6789,-13.26 6.47415,0 14.29613,16 24.38751,13.26 -6.12856,-4.47 -10.09138,-8.33 -16.00106,-21.36 -0.10368,-0.24 -2.83389,-6.28 1.62429,-11.62 3.90523,-4.67 9.86099,-3.52 12.33776,-2.78 6.42807,3.13 3.45595,23.47 11.61201,20.5 8.15605,-2.97 20.25189,-9 17.09545,-15.34 -3.55963,0.35 -11.07057,12.13 -16.79594,7.13 -4.80377,-4.17 -3.70939,-12 -2.30397,-15.62 1.09871,-2.2705317 2.77203,-4.2972819 4.89594,-5.9299995 0.72575,-0.49 4.78073,-1.67 10.81713,-0.78 3.82459,0.57 10.7941,2.38 14.90669,8.1899995 6.72759,9.53 -2.68413,21.49 -2.76477,21.59 -1.54407,1.939405 -1.40254,4.535825 0.3456,6.34 2.24146,2.544378 3.60381,5.589319 3.92827,8.78 0.38015,4.18 -4.53882,7.49 -4.60794,7.49 -3.02972,0.44 -6.54328,-5.6 -6.54328,-5.6 0.47411,4.296049 2.10802,8.434609 4.76922,12.08 0,0 4.22778,7.35 6.77367,12.59 1.05983,2.19 0.0922,5.470003 -1.60126,8.400003 -0.006,-0.02639 -0.006,-0.05361 0,-0.08 -3.96283,3.74 -9.91859,4.6 -14.69932,1.87 -4.78074,-2.73 -4.38906,-5.830003 -6.71607,-15.720003 -0.30634,-1.303194 -0.69086,-2.591615 -1.15199,-3.86 v 0 c 0,0 -3.21404,-10.84 -1.5667,-16 1.15199,-3.53 3.90523,-6.75 11.10513,-6.18 -3.87066,-5.85 -12.04976,-4.76 -15.93194,-0.24 -3.45596,4.09 -3.3638,10.21 -2.17725,13.16 -8.0639,-3.83 -13.89294,1.94 -13.89294,1.94 0,0 7.29206,0.14 11.65809,4.16 2.18877,2 3.45595,4.53 4.43514,12 0.97918,7.470003 6.45111,15.510003 13.22478,17.510003 3.95337,1.187499 8.14028,1.677089 12.31472,1.44 -0.47999,1.41017 -1.18163,2.756173 -2.0851,4 -1.34806,1.756258 -1.34806,4.043738 0,5.799998 3.75881,5.16514 6.23096,10.9559 7.25751,17 0.9907,6.50001 -1.40542,14.00001 -2.98364,18.00001 -9.02004,-1.29 -18.96167,-11.92 -20.18277,-19.37001 -0.16499,-1.37094 -0.58923,-2.70888 -1.25567,-3.96 h 0.16128 c 5.61017,-0.51 6.35896,-14.13 6.35896,-14.13 0,0 -7.5455,11.54 -19.22663,7.13 -6.62391,-2.59 -8.27125,-12.479998 -8.92788,-18.359998 -0.63359,-5.72 4.02043,-13.000003 4.27386,-13.470003 -0.43775,0.23 -7.64917,4.090003 -9.89555,7.290003 -2.24637,3.2 -5.75992,4.18 -13.38606,2.6 -7.62614,-1.58 -12.22255,-14.450003 -8.00629,-19.670003 0.11714,-0.154974 0.22482,-0.315196 0.32256,-0.48 0.11082,-0.101246 0.21471,-0.2081 0.31103,-0.32 2.66109,-1.76 13.96206,3.12 20.73573,-2.67 -15.69004,0 -22.14115,-4.35 -22.14115,-4.35 -0.72575,-1.12 -1.99293,-3.94 -1.48606,-9.1 z m 76.16923,134.860011 c -3.57116,6.51 -13.82382,13.47 -31.10359,11.64 -13.38606,-1.43 -18.21288,-13.78 -19.31878,-17.24 2.56488,-2.63695 4.91303,-5.42716 7.0271,-8.35 -5.11484,1.46125 -10.32767,2.65013 -15.60939,3.56 -4.38906,0.31 -13.4667,0.23 -19.06535,-5 -5.12633,-4.86 -5.12633,-12.18 -4.4697,-16.67 7.19991,2.22 14.44589,1.84 20.60901,-3.87 -7.17686,0.19 -15.71307,-1.28 -22.45218,-6.27 -1.72798,-1.52 -5.62169,-5.37 -6.35896,-10 -0.64511,-3.9 1.02527,-8.21 2.86845,-11.49 3.05275,5.58 12.51055,10.21 19.99845,14.31 8.36341,4.59 19.98693,5.56 20.47077,11.75 1.08286,13.28 -20.17125,17.91 -20.17125,17.91 7.44182,-0.06 19.05382,-1.52 22.63649,-5.1 4.42363,-0.38 11.51985,1.44 17.04938,5.08 6.81975,4.5 10.46002,14.44 10.46002,14.44 1.86621,-6.49 -3.3062,-14.91 -6.60087,-19.7 -3.29468,-4.79 -3.45596,-14.15 -3.45596,-14.15 0,0 -4.96505,6.12 -4.2969,11.2 -1.7395,-1.81 -6.1516,-2.34 -9.48083,-2.49 1.13748,-2.85388 1.60364,-5.8769 1.37086,-8.89 -0.19584,-2.62 -3.88219,-5.73 -8.75509,-8.7 7.47638,-1.85 12.54512,-12.4 5.61017,-14.67 0,2 -3.88219,10.67 -19.9063,7.47 -0.92158,-0.4 -1.79709,-0.76 -2.62652,-1.11 -7.71688,-3.23528 -14.01813,-8.55432 -17.95944,-15.16001 -0.63359,-1.22 -1.15199,-2.36 -1.70494,-3.58 -0.43775,-0.82 -1.7395,-3.62 -3.60571,-11.399998 -2.45373,-10.28 0.52991,-17.750003 4.30842,-22.740003 -0.55295,8.420003 8.97396,15.350003 15.49419,17.930003 7.25751,2.85 15.2062,-1.59 15.69004,2.15 0.48383,3.74 2.30397,4.719998 0.65663,8.889998 -1.64734,4.17 -11.51985,6.16 -22.62498,1.15 -0.33408,9 24.44511,9.6 28.24666,5.73 1.3363,3.74 10.74802,3.74 15.05644,6.75 4.30842,3.01001 5.61017,16.34001 10.72498,19.94001 5.11481,3.6 15.87435,7.6 21.48451,13.34 0.16128,0.15 0.288,0.28 0.41472,0.42 1.21289,3.11795 2.08081,6.32913 2.59196,9.59 1.64734,8.66 0.55296,16.51 -3.20251,23.33 z"
         id="path66" />
    </g>
    <g
       inkscape:groupmode="layer"
       id="layer1"
       inkscape:label="hjgfhgfhgf"
       style="display:inline;opacity:0.427807" />
  </g>
  <g
     style="display:inline"
     transform="translate(-132.5969,6.1282605)"
     inkscape:label="Layer 1"
     id="layer2"
     inkscape:groupmode="layer">
    <path
       sodipodi:nodetypes="cccc"
       style="fill:none;fill-opacity:1;stroke:#000000;stroke-width:7.33853;stroke-linecap:butt;stroke-linejoin:miter;stroke-miterlimit:4;stroke-dasharray:none;stroke-dashoffset:0;stroke-opacity:1"
       d="m 234.59532,8.8073823 h 85.3833 c -12.40006,59.6384127 -14.59634,120.6532677 0,186.3552777 h -85.73758"
       id="path1413" />
  </g>
  <path
     sodipodi:nodetypes="ccc"
     id="path1486"
     d="m 127.59416,105.08421 c 14.20216,31.93438 12.62175,26.93065 12.62175,26.93065 l 18.60832,-52.15731"
     style="fill:none;stroke:#008a00;stroke-width:6.863;stroke-linecap:square;stroke-linejoin:miter;stroke-miterlimit:3.7;stroke-dasharray:none;stroke-dashoffset:12.3534;stroke-opacity:1;paint-order:fill markers stroke" />
</svg>
